<?xml version="1.0" encoding="UTF-8" standalone="no"?>
<svg width="40px" height="45px" viewBox="0 0 40 45" version="1.1" xmlns="http://www.w3.org/2000/svg" xmlns:xlink="http://www.w3.org/1999/xlink" xmlns:sketch="http://www.bohemiancoding.com/sketch/ns">
    <!-- Generator: Sketch 3.4.3 (16044) - http://www.bohemiancoding.com/sketch -->
    <title>Logo_Editora_3</title>
    <desc>Created with Sketch.</desc>
    <defs>
        <path id="path-1" d="M0.0279069767,0.338139535 L39.5539535,0.338139535 L39.5539535,44.6232558 L0.0279069767,44.6232558 L0.0279069767,0.338139535 Z"></path>
    </defs>
    <g id="Page-1" stroke="none" stroke-width="1" fill="none" fill-rule="evenodd" sketch:type="MSPage">
        <g id="footer_newsletter_desktop_1280" sketch:type="MSArtboardGroup" transform="translate(-404.000000, -720.000000)">
            <g id="Group" sketch:type="MSLayerGroup" transform="translate(349.000000, 30.000000)">
                <g transform="translate(0.000000, 446.000000)" id="Logo_Editora_3">
                    <g transform="translate(55.000000, 244.348837)">
                        <g id="Group-3">
                            <mask id="mask-2" sketch:name="Clip 2" fill="white">
                                <use xlink:href="#path-1"></use>
                            </mask>
                            <g id="Clip-2"></g>
                            <path d="M33.2362791,40.3418605 C33.2362791,41.8088372 32.2144186,43.4604651 30.8027907,43.4604651 L8.41813953,43.4604651 C7.17860465,43.1990698 6.31674419,41.7130233 6.31674419,40.3418605 L6.31674419,4.65209302 C6.31674419,3.20232558 7.29860465,1.57069767 8.69953488,1.56465116 L30.8060465,1.53255814 C32.2181395,1.53255814 33.2362791,3.18744186 33.2362791,4.65209302 L33.2362791,40.3418605 L33.2362791,40.3418605 Z M30.8018605,0.338139535 L8.74744186,0.338139535 C4.13488372,0.366046512 0,5.04883721 0,10.2023256 L0,34.7906977 C0,39.8246512 3.93860465,44.4088372 8.41395349,44.6511628 L30.8060465,44.6511628 C35.4213953,44.6511628 39.5539535,39.9362791 39.5539535,34.7906977 L39.5539535,10.2023256 C39.5539535,5.04093023 35.4144186,0.366976744 30.8018605,0.338139535 L30.8018605,0.338139535 Z" id="Fill-1" fill="#1A1918" sketch:type="MSShapeGroup" mask="url(#mask-2)"></path>
                        </g>
                        <path d="M21.9702326,18.3213953 C22.6865116,18.5781395 25.7465116,19.9530233 25.7465116,23.6702326 C25.7465116,27.3911628 22.7060465,28.0576744 22.7060465,28.0576744 C22.7060465,28.0576744 22.0539535,28.1562791 22.3934884,27.6786047 C22.7283721,27.1995349 24.0488372,25.8255814 24.0488372,23.8813953 C24.0488372,21.9339535 22.5195349,19.9995349 20.0865116,19.9995349 C17.6488372,19.9995349 16.1209302,21.9339535 16.1209302,23.8813953 C16.1209302,25.8255814 17.4413953,27.1995349 17.78,27.6786047 C18.1181395,28.1562791 17.4651163,28.0576744 17.4651163,28.0576744 C17.4651163,28.0576744 14.4213953,27.3911628 14.4213953,23.6702326 C14.4213953,19.9530233 17.484186,18.5781395 18.1986047,18.3213953 C18.9134884,18.0618605 19.1023256,17.7595349 19.1023256,17.3669767 C19.1023256,16.9781395 18.9134884,16.6706977 18.1986047,16.4130233 C17.484186,16.1595349 14.4213953,14.7818605 14.4213953,11.0660465 C14.4213953,7.34604651 17.4651163,6.67860465 17.4651163,6.67860465 C17.4651163,6.67860465 18.1181395,6.58 17.78,7.05813953 C17.4413953,7.53534884 16.1209302,8.90976744 16.1209302,10.8530233 C16.1209302,12.8018605 17.6488372,14.7381395 20.0865116,14.7381395 C22.5195349,14.7381395 24.0488372,12.8018605 24.0488372,10.8530233 C24.0488372,8.90976744 22.7283721,7.53534884 22.3934884,7.05813953 C22.0539535,6.58 22.7060465,6.67860465 22.7060465,6.67860465 C22.7060465,6.67860465 25.7465116,7.34604651 25.7465116,11.0660465 C25.7465116,14.7818605 22.6865116,16.1595349 21.9702326,16.4130233 C21.2516279,16.6706977 21.0716279,16.9781395 21.0716279,17.3669767 C21.0716279,17.7595349 21.2516279,18.0618605 21.9702326,18.3213953 M20.0865116,28.015814 C19.2437209,28.0409302 17.2176744,26.2106977 16.9786047,24.1795349 C16.7269767,22.0386047 18.4902326,20.7325581 20.0865116,20.7325581 C21.6804651,20.7325581 23.4455814,22.0386047 23.1925581,24.1795349 C22.9544186,26.2106977 20.9237209,28.0409302 20.0865116,28.015814 M17.9725581,29.4227907 C17.9725581,29.4227907 17.172093,29.8823256 15.0562791,29.8823256 C11.3618605,29.8823256 8.63488372,27.22 8.63488372,24.0511628 C8.63488372,19.9004651 12.2413953,18.2190698 13.8176744,18.2190698 C14.8893023,18.2190698 14.7851163,17.3669767 14.7851163,17.3669767 C14.7851163,17.3669767 14.8893023,16.5213953 13.8176744,16.5213953 C12.2413953,16.5213953 8.63488372,14.8367442 8.63488372,10.6883721 C8.63488372,7.51255814 11.3618605,4.8544186 15.0562791,4.8544186 C17.172093,4.8544186 17.9725581,5.31627907 17.9725581,5.31627907 C17.9725581,5.31627907 18.5181395,5.61302326 18.0316279,5.73627907 C17.5525581,5.85627907 13.6288372,6.39069767 13.6288372,10.9781395 C13.6288372,15.5702326 17.2586047,16.7753488 17.8902326,17.1065116 C17.8902326,17.1065116 18.2037209,17.1953488 18.2037209,17.3669767 C18.2037209,17.544186 17.8902326,17.6297674 17.8902326,17.6297674 C17.2586047,17.96 13.6288372,19.1669767 13.6288372,23.7548837 C13.6288372,28.3451163 17.5525581,28.88 18.0316279,29.0004651 C18.5181395,29.1213953 17.9725581,29.4227907 17.9725581,29.4227907 M20.0865116,6.7172093 C20.9237209,6.69627907 22.9544186,8.52790698 23.1925581,10.5567442 C23.4455814,12.6976744 21.6804651,14.0004651 20.0865116,14.0004651 C18.4902326,14.0004651 16.7269767,12.6976744 16.9786047,10.5567442 C17.2176744,8.52790698 19.2437209,6.69627907 20.0865116,6.7172093 M26.8530233,17.127907 C27.1716279,17.0595349 31.8065116,15.8306977 31.8065116,10.6674419 C31.8065116,6.2572093 28.0055814,4.20046512 24.7967442,4.20046512 C21.5897674,4.20046512 19.7851163,5.31627907 19.7851163,5.31627907 C19.7851163,5.31627907 17.9990698,4.20046512 14.7948837,4.20046512 C11.5860465,4.20046512 7.78465116,6.2572093 7.78465116,10.6674419 C7.78465116,15.8306977 12.4204651,17.0595349 12.7372093,17.127907 C13.0553488,17.1953488 13.0493023,17.3669767 13.0493023,17.3669767 C13.0493023,17.3669767 13.0553488,17.54 12.7372093,17.6060465 C12.4204651,17.6739535 7.78465116,18.9065116 7.78465116,24.0706977 C7.78465116,28.484186 11.5860465,30.5418605 14.7948837,30.5418605 C17.9990698,30.5418605 19.7851163,29.4227907 19.7851163,29.4227907 C19.7851163,29.4227907 21.5897674,30.5418605 24.7967442,30.5418605 C28.0055814,30.5418605 31.8065116,28.484186 31.8065116,24.0706977 C31.8065116,18.9065116 27.1716279,17.6739535 26.8530233,17.6060465 C26.5367442,17.54 26.5376744,17.3669767 26.5376744,17.3669767 C26.5376744,17.3669767 26.5367442,17.1953488 26.8530233,17.127907" id="Fill-4" fill="#1A1918" sketch:type="MSShapeGroup"></path>
                        <path d="M20.072093,13.5074419 C21.5530233,13.5074419 22.7544186,12.3046512 22.7544186,10.827907 C22.7544186,9.34930233 21.5530233,8.14790698 20.072093,8.14790698 C18.5944186,8.14790698 17.3939535,9.34930233 17.3939535,10.827907 C17.3939535,12.3046512 18.5944186,13.5074419 20.072093,13.5074419" id="Fill-5" fill="#1A1918" sketch:type="MSShapeGroup"></path>
                        <path d="M20.072093,21.2297674 C18.5944186,21.2297674 17.3939535,22.427907 17.3939535,23.9097674 C17.3939535,25.3874419 18.5944186,26.5874419 20.072093,26.5874419 C21.5530233,26.5874419 22.7544186,25.3874419 22.7544186,23.9097674 C22.7544186,22.427907 21.5530233,21.2297674 20.072093,21.2297674" id="Fill-6" fill="#1A1918" sketch:type="MSShapeGroup"></path>
                        <path d="M16.332093,36.6125581 L16.2883721,36.6125581 L16.2883721,34.6018605 C16.2883721,34.1916279 16.2883721,33.6437209 16.3209302,32.9544186 C16.4669767,32.9544186 16.5525581,32.9693023 16.5827907,32.9693023 C17.5525581,32.9693023 17.9930233,33.4627907 17.9930233,34.6902326 C17.9930233,36.0437209 17.4804651,36.6125581 16.332093,36.6125581 M19.7716279,34.6162791 C19.7716279,32.792093 19.0037209,32.0344186 17.4130233,32.0344186 C16.6455814,32.0344186 15.9413953,32.1348837 15.2897674,32.1348837 C15.0465116,32.1348837 14.7851163,32.1093023 14.4883721,32.0786047 C14.6139535,33.9432558 14.627907,35.6223256 14.627907,37.0669767 L14.627907,37.5767442 C14.627907,38.8176744 14.6139535,40.2893023 14.4883721,42.0395349 C14.8795349,41.9953488 15.1953488,41.9660465 15.4362791,41.9660465 C15.6693023,41.9660465 15.9827907,41.9953488 16.3739535,42.0395349 C16.3069767,41.1204651 16.2883721,40.2032558 16.2883721,39.2711628 L16.2883721,37.3590698 C17.3125581,39.4869767 17.9604651,41.0469767 18.2655814,42.0395349 C18.6655814,41.9953488 19.0153488,41.9660465 19.3111628,41.9660465 C19.5604651,41.9660465 19.9483721,41.9953488 20.4548837,42.0395349 C19.7716279,40.7288372 18.9827907,39.0939535 18.1311628,37.0669767 C19.1390698,36.9488372 19.7716279,36.0167442 19.7716279,34.6162791" id="Fill-7" fill="#1A1918" sketch:type="MSShapeGroup"></path>
                        <path d="M11.2334884,32.1865116 C10.5130233,32.1865116 9.56186047,32.1460465 8.41767442,32.0855814 C8.43674419,32.392093 8.45767442,32.5967442 8.45767442,32.732093 C8.45767442,32.9469767 8.43674419,33.2111628 8.41767442,33.4851163 C9.03581395,33.3693023 9.67906977,33.3130233 10.32,33.3130233 C10.3534884,35.0023256 10.3869767,36.2697674 10.3869767,37.0767442 C10.3869767,38.5902326 10.3534884,40.2413953 10.24,42.0493023 C10.6451163,42.004186 10.972093,41.9744186 11.2334884,41.9744186 C11.4339535,41.9744186 11.7734884,42.004186 12.2348837,42.0493023 C12.1106977,40.1069767 12.1106977,38.0976744 12.1106977,35.9674419 L12.1106977,35.3693023 C12.1106977,34.8288372 12.1106977,34.1260465 12.1493023,33.3130233 C12.7925581,33.3130233 13.4237209,33.3693023 14.044186,33.4851163 C14.0251163,33.2111628 14.012093,32.9469767 14.012093,32.732093 C14.012093,32.5967442 14.0251163,32.392093 14.044186,32.0855814 C12.8693023,32.1460465 11.932093,32.1865116 11.2334884,32.1865116" id="Fill-8" fill="#1A1918" sketch:type="MSShapeGroup"></path>
                        <path d="M28.3274419,35.9074419 C27.3186047,35.2488372 26.7502326,35.0023256 26.7502326,34.1432558 C26.7502326,33.4246512 27.1813953,32.8595349 27.9269767,32.8595349 C28.652093,32.8595349 29.1060465,33.3562791 29.4009302,34.4209302 L29.5274419,34.4209302 C29.6344186,33.7772093 29.772093,33.152093 29.9465116,32.5088372 C29.3925581,32.0855814 28.7693023,31.8981395 28.0646512,31.8981395 C26.3274419,31.8981395 25.3390698,33.1227907 25.3390698,34.9888372 C25.3390698,36.5953488 26.0562791,37.2204651 27.3288372,38.0372093 C28.215814,38.6060465 28.695814,38.927907 28.695814,39.7855814 C28.695814,40.6772093 28.215814,41.2334884 27.4037209,41.2334884 C26.5055814,41.2334884 26.0032558,40.6209302 25.8237209,39.364186 L25.6446512,39.364186 C25.5502326,40.0939535 25.4455814,40.8972093 25.3181395,41.755814 C25.8325581,42.0632558 26.4762791,42.2376744 27.1897674,42.2376744 C29.1060465,42.2376744 30.2130233,40.9683721 30.2130233,38.927907 C30.2130233,37.2330233 29.4930233,36.6813953 28.3274419,35.9074419" id="Fill-9" fill="#1A1918" sketch:type="MSShapeGroup"></path>
                        <path d="M22.78,32.16 C22.4125581,32.16 21.7288372,32.1288372 20.7311628,32.0855814 C20.8553488,33.56 20.8646512,35.0032558 20.8646512,36.4604651 L20.8646512,38.0804651 C20.8646512,39.3530233 20.8553488,40.6637209 20.7311628,42.047907 C21.3823256,41.9888372 21.9162791,41.975814 22.3269767,41.975814 C22.8748837,41.975814 23.7567442,42.004186 24.9665116,42.047907 C24.9469767,41.7274419 24.9288372,41.4930233 24.9288372,41.3627907 C24.9288372,41.1734884 24.9372093,40.9548837 24.9567442,40.6772093 C24.1474419,40.7962791 23.4,40.8381395 22.675814,40.8381395 C22.6325581,40.2683721 22.6227907,39.6283721 22.6227907,38.8972093 L22.6227907,37.3065116 C23.3697674,37.3223256 24.1386047,37.367907 24.9288372,37.4390698 C24.9051163,37.12 24.884186,36.9013953 24.884186,36.7688372 C24.884186,36.6232558 24.8953488,36.3874419 24.9288372,36.0790698 C23.9688372,36.1395349 23.1990698,36.1865116 22.6227907,36.2144186 L22.6227907,35.4418605 C22.6227907,34.7413953 22.6325581,34.0293023 22.6534884,33.2986047 C22.8748837,33.2823256 23.1083721,33.2823256 23.3376744,33.2823256 C23.8744186,33.2823256 24.42,33.3130233 24.9995349,33.3855814 C24.9786047,33.1102326 24.9567442,32.9027907 24.9567442,32.7409302 C24.9567442,32.5795349 24.9786047,32.3623256 24.9995349,32.0855814 C24.0981395,32.1288372 23.3488372,32.16 22.78,32.16" id="Fill-10" fill="#1A1918" sketch:type="MSShapeGroup"></path>
                        <path d="M22.1655814,30.8451163 L21.0381395,31.684186 L21.8032558,31.684186 L22.7111628,31.1162791 L23.6213953,31.684186 L24.4051163,31.684186 L23.2813953,30.8451163 L22.1655814,30.8451163" id="Fill-11" fill="#1A1918" sketch:type="MSShapeGroup"></path>
                    </g>
                </g>
            </g>
        </g>
    </g>
</svg>