<?xml version="1.0" encoding="UTF-8" standalone="no"?>
<svg width="220px" height="60px" viewBox="0 0 220 60" version="1.1" xmlns="http://www.w3.org/2000/svg" xmlns:xlink="http://www.w3.org/1999/xlink">
    <!-- Generator: Sketch 41.1 (35376) - http://www.bohemiancoding.com/sketch -->
    <title>LOGO_DINHEIRO_MOB</title>
    <desc>Created with Sketch.</desc>
    <defs></defs>
    <g id="-HEADER" stroke="none" stroke-width="1" fill="none" fill-rule="evenodd">
        <g id="LOGO_DINHEIRO_MOB">
            <rect id="Rectangle-Copy-16" x="0" y="0" width="220" height="60"></rect>
            <path d="M41.5832154,44.8075551 C48.2921067,44.8075551 48.7040991,40.0306601 48.7040991,30.0475809 C48.7040991,20.2788225 48.2334369,15.4485092 41.4652239,15.4485092 L37.6396271,15.4485092 L37.6396271,44.8075551 L41.5832154,44.8075551 Z M31.5193894,10.1348407 L41.5242196,10.1348407 C46.1144794,10.1348407 49.1750872,11.2621297 51.1170575,13.1949025 C54.6480014,16.6829585 54.9423283,22.748045 54.9423283,29.993515 C54.9423283,37.7223401 54.6480014,43.9486529 50.7640608,47.2220643 C48.7630948,48.9398687 45.8204785,49.9062552 41.4062281,49.9062552 L31.5193894,49.9062552 L31.5193894,10.1348407 Z" id="Fill-2" fill="#0A38B0"></path>
            <polygon id="Fill-4" fill="#0A38B0" points="59.3736951 22.7606866 65.0711667 22.7606866 65.0711667 49.9062552 59.3736951 49.9062552"></polygon>
            <path d="M70.1355859,22.8630287 L75.0376219,22.6184839 L75.5098303,25.2101413 C76.4552324,23.3517948 78.5223757,22.1293943 83.128871,22.1293943 C85.7867675,22.1293943 87.499262,22.813861 88.6213317,23.8897287 C90.0392706,25.3566741 90.3932627,27.6555893 90.3932627,30.58948 L90.3932627,49.9062552 L84.4285935,49.9062552 L84.4285935,32.3504614 C84.4285935,27.9978226 83.6608443,26.8731106 80.825295,26.8731106 C76.6325568,26.8731106 76.0418037,29.4159237 76.0418037,33.963616 L76.0418037,49.9062552 L70.1355859,49.9062552 L70.1355859,22.8630287 Z" id="Fill-6" fill="#0A38B0"></path>
            <path d="M95.4576819,10.766133 L101.363843,10.766133 L101.363843,25.0065518 C102.426578,23.5014095 104.43506,22.3365937 108.451368,22.3365937 C111.108862,22.3365937 112.821593,23.0159626 113.944135,24.0838174 C115.361114,25.5398371 115.715359,27.8216304 115.715359,30.7333488 L115.715359,49.9062552 L109.750376,49.9062552 L109.750376,32.4815356 C109.750376,28.1609937 108.983064,27.0449795 106.147791,27.0449795 C101.954689,27.0449795 101.363843,29.568854 101.363843,34.0826757 L101.363843,49.9062552 L95.4576819,49.9062552 L95.4576819,10.766133 Z" id="Fill-7" fill="#0A38B0"></path>
            <path d="M125.365557,32.0368263 L133.620008,32.0729606 C133.618067,30.4524547 133.613861,26.8582391 129.773604,26.8367539 C126.191197,26.8168963 125.358763,29.7281426 125.365557,32.0368263 M123.032609,48.6823319 C120.006991,46.3684396 119.538525,41.9704818 119.514584,36.291875 C119.49129,30.698558 119.899257,26.8318709 122.557672,24.46394 C124.128069,22.9840646 126.607898,22.1061007 130.175423,22.1298647 C133.374452,22.1516754 135.511667,22.9495581 136.818066,24.327867 C139.30663,26.9516672 139.135808,31.2138776 139.135808,36.2863409 L125.184706,36.2394641 C124.937532,44.9243729 126.732133,46.0689488 130.882005,46.0725297 C133.524244,46.075785 135.493549,45.3006897 136.932271,44.7632338 L139.000251,48.8499817 C136.366747,49.9753511 134.128915,50.5375475 130.109424,50.5375475 C127.224863,50.5375475 124.603329,49.9105699 123.032609,48.6823319" id="Fill-8" fill="#0A38B0"></path>
            <path d="M143.569664,22.5838551 L149.267136,22.5838551 L149.267136,49.9062552 L143.569664,49.9062552 L143.569664,22.5838551 Z M143.569664,10.766133 L149.267136,10.766133 L149.267136,18.4824237 L143.569664,18.4824237 L143.569664,10.766133 Z" id="Fill-9" fill="#0A38B0"></path>
            <path d="M154.331555,23.2109274 L159.335695,22.969413 L159.873001,26.1046277 C160.913472,23.8843564 163.557244,22.3927814 167.533177,22.8400303 L167.625656,27.5415745 C162.308612,27.5415745 160.384784,29.4867877 160.384784,34.5074759 L160.384784,49.9062552 L154.331555,49.9062552 L154.331555,23.2109274 Z" id="Fill-10" fill="#0A38B0"></path>
            <path d="M183.879634,36.4812533 C183.879634,30.6126926 183.648099,26.9135648 179.365666,26.9135648 C175.025831,26.9135648 174.736252,30.6126926 174.736252,36.4812533 C174.736252,42.4000535 175.025831,46.0495943 179.365666,46.0495943 C183.648099,46.0495943 183.879634,42.4000535 183.879634,36.4812533 M172.248054,48.4663099 C169.238421,46.0000072 168.89176,41.5613149 168.89176,36.3334709 C168.89176,31.2534093 169.181019,26.9135648 171.958475,24.3976751 C173.520854,23.0167413 175.835561,22.1293943 179.365666,22.1293943 C182.838368,22.1293943 185.210478,23.0167413 186.772537,24.3976751 C189.492911,26.9135648 189.78249,31.3026701 189.78249,36.3334709 C189.78249,41.512054 189.492911,45.9507464 186.541964,48.3674621 C184.979585,49.699135 182.722601,50.5375475 179.365666,50.5375475 C176.009373,50.5375475 173.752389,49.7487221 172.248054,48.4663099" id="Fill-11" fill="#0A38B0"></path>
            <path d="M89.7602103,13.4150183 L89.7602103,10.1397842 L87.311959,10.1397842 L87.7670517,9.50354844 L86.080607,9.50354844 L85.6258354,10.1397842 L82.683309,10.1397842 L82.683309,11.9550786 L83.6378155,11.9550786 L83.6378155,17.0269886 L82.683309,17.0269886 L82.683309,18.842283 L89.7602103,18.842283 L89.7602103,15.6046068 L87.5685709,15.6046068 L87.5685709,17.0269886 L85.8291338,17.0269886 L85.8291338,15.5111937 L87.1394926,15.5111937 L87.1394926,13.4708735 L85.8291338,13.4708735 L85.8291338,11.9550786 L87.5685709,11.9550786 L87.5685709,13.4150183 L89.7602103,13.4150183 Z M79.1090483,16.722353 C77.8690249,16.722353 76.8637741,15.7172802 76.8637741,14.4778723 C76.8637741,13.2371804 77.8690249,12.2327496 79.1090483,12.2327496 C80.3500352,12.2327496 81.3556072,13.2371804 81.3556072,14.4778723 C81.3556072,15.7172802 80.3500352,16.722353 79.1090483,16.722353 L79.1090483,16.722353 Z M79.1090483,10.0762249 C78.2794755,10.0762249 77.5028952,10.3060658 76.840329,10.7050775 L76.840329,10.1397842 L70.2336152,10.1397842 L70.2230167,10.1397842 L68.0053628,10.1397842 L68.0053628,10.4267645 C68.0053628,10.4267645 67.3408696,10.0178016 66.4210491,10.0178016 C64.7037724,10.0178016 63.4846248,11.2626666 63.4846248,12.6054387 C63.4846248,14.2573405 64.6221961,14.8030524 65.9839416,15.2579193 C66.5459828,15.4444243 67.0058931,15.5763582 67.2859501,15.7044399 C67.6376273,15.8652644 67.7827945,16.1384413 67.7827945,16.398457 C67.7827945,16.8263593 67.3880811,17.1669477 66.911149,17.1669477 C65.9184237,17.1669477 65.6454322,15.9968773 65.6454322,15.9968773 L63.4470483,15.9975193 L63.4467272,17.0321247 L63.446406,17.0282726 L62.5195198,17.0269886 L62.5195198,11.9550786 L63.5684492,11.9550786 L63.5684492,10.1397842 L59.3736951,10.1397842 L59.3736951,11.9550786 L60.3282016,11.9550786 L60.3282016,17.0269886 L59.3736951,17.0269886 L59.3736951,18.842283 L63.446406,18.842283 L63.7007698,18.842283 L63.7007698,18.841641 L65.6454322,18.841641 L65.6454322,18.5357213 C65.6454322,18.5357213 66.3420421,18.9729328 67.3864752,18.9729328 C68.9566577,18.9729328 70.3569431,17.8705949 70.3569431,16.3689243 C70.3569431,14.6977621 68.8927456,14.048686 67.8900641,13.7543226 C67.3935409,13.6089065 66.8414559,13.4384518 66.5430923,13.3142221 C66.154481,13.1540396 65.9839416,12.9357549 65.9839416,12.619884 C65.9839416,12.1181501 66.4444942,11.8847781 66.8180107,11.8847781 C67.887816,11.8847781 68.0818004,13.1440884 68.0818004,13.1440884 L70.2432502,13.1440884 L70.2438926,11.9168788 L70.2448561,11.9550786 L71.3821062,11.9550786 L71.3821062,17.0269886 L70.3813518,17.0269886 L70.3813518,18.842283 L74.5757848,18.842283 L74.5757848,17.0269886 L73.5740668,17.0269886 L73.5740668,11.9550786 L74.7061783,11.9550786 L74.7061783,14.4778723 C74.7061783,16.908216 76.6774976,18.8788778 79.1090483,18.8788778 C81.5418837,18.8788778 83.5125606,16.908216 83.5125606,14.4778723 C83.5125606,12.0462446 81.5418837,10.0762249 79.1090483,10.0762249 L79.1090483,10.0762249 Z" id="Fill-12" fill="#333333"></path>
        </g>
    </g>
</svg>